<svg width="32" height="32" viewBox="0 0 32 32" fill="none" xmlns="http://www.w3.org/2000/svg">
  <!-- Sky blue gradient background circle -->
  <defs>
    <radialGradient id="skyGradient" cx="0.5" cy="0.3" r="0.7">
      <stop offset="0%" stop-color="#64B5F6"/>
      <stop offset="100%" stop-color="#1976D2"/>
    </radialGradient>
  </defs>

  <!-- Background circle -->
  <circle cx="16" cy="16" r="15" fill="url(#skyGradient)" stroke="#1976D2" stroke-width="0.5"/>

  <!-- Stylized fern leaves in white -->
  <g fill="white" opacity="0.9">
    <!-- Main stem -->
    <rect x="15.5" y="8" width="1" height="16" rx="0.5"/>

    <!-- Left fronds -->
    <path d="M15.5 12 Q12 11 10 13 Q12 14 15.5 13.5" />
    <path d="M15.5 15 Q11 14 8 16.5 Q11 18 15.5 17" />
    <path d="M15.5 18 Q12 17.5 9.5 19.5 Q12 21 15.5 20.5" />

    <!-- Right fronds -->
    <path d="M16.5 12 Q20 11 22 13 Q20 14 16.5 13.5" />
    <path d="M16.5 15 Q21 14 24 16.5 Q21 18 16.5 17" />
    <path d="M16.5 18 Q20 17.5 22.5 19.5 Q20 21 16.5 20.5" />

    <!-- Top frond -->
    <path d="M16 8 Q14 6 12 8 Q14 9 16 8.5" />
    <path d="M16 8 Q18 6 20 8 Q18 9 16 8.5" />
  </g>
</svg>